<svg fill="#111827" class="w-24" xmlns="http://www.w3.org/2000/svg" viewBox="0 0 75 74.999997" version="1.0"><defs><filter x="0%" y="0%" width="100%" height="100%" id="16bb9af497"><feColorMatrix values="0 0 0 0 1 0 0 0 0 1 0 0 0 0 1 0 0 0 1 0" color-interpolation-filters="sRGB"></feColorMatrix></filter><mask id="7ac26b602e"><g filter="url(#16bb9af497)"><rect x="-7.5" width="90" y="-7.5" height="89.999996"></rect></g></mask><clipPath id="75a2c4f12d"><path d="M 16 40 L 59 40 L 59 60.28125 L 16 60.28125 Z M 16 40 " clip-rule="nonzero"></path></clipPath><clipPath id="64a40d503a"><path d="M 8 2.53125 L 31 2.53125 L 31 30 L 8 30 Z M 8 2.53125 " clip-rule="nonzero"></path></clipPath><clipPath id="7fc6f0f3c4"><path d="M 44 2.53125 L 67 2.53125 L 67 30 L 44 30 Z M 44 2.53125 " clip-rule="nonzero"></path></clipPath><clipPath id="fe21879656"><path d="M 48 32 L 74.878906 32 L 74.878906 52 L 48 52 Z M 48 32 " clip-rule="nonzero"></path></clipPath><clipPath id="3403e38827"><rect x="0" width="75" y="0" height="62"></rect></clipPath></defs><g mask="url(#7ac26b602e)"><g transform="matrix(1, 0, 0, 1, 0, 6)"><g clip-path="url(#3403e38827)"><path d="M 37.5 10.117188 C 44.675781 10.117188 50.488281 16.058594 50.488281 23.390625 C 50.488281 30.714844 44.675781 36.652344 37.5 36.652344 C 30.332031 36.652344 24.511719 30.714844 24.511719 23.390625 C 24.511719 16.058594 30.332031 10.117188 37.5 10.117188 " fill-opacity="1" fill-rule="nonzero"></path><g clip-path="url(#75a2c4f12d)"><path d="M 37.5 40.234375 C 49.066406 40.234375 58.453125 44.730469 58.453125 50.28125 C 58.453125 55.832031 49.066406 60.332031 37.5 60.332031 C 25.933594 60.332031 16.546875 55.832031 16.546875 50.28125 C 16.546875 44.730469 25.933594 40.234375 37.5 40.234375 " fill-opacity="1" fill-rule="nonzero"></path></g><g clip-path="url(#64a40d503a)"><path d="M 21.074219 29.050781 C 21.121094 29.050781 21.171875 29.046875 21.21875 29.046875 C 20.628906 27.273438 20.296875 25.367188 20.296875 23.390625 C 20.296875 16.078125 24.691406 9.800781 30.921875 7.15625 C 28.539062 4.324219 25.015625 2.523438 21.074219 2.523438 C 13.898438 2.523438 8.085938 8.464844 8.085938 15.789062 C 8.085938 23.113281 13.898438 29.050781 21.074219 29.050781 " fill-opacity="1" fill-rule="nonzero"></path></g><g clip-path="url(#7fc6f0f3c4)"><path d="M 54.703125 23.390625 C 54.703125 25.367188 54.371094 27.265625 53.78125 29.046875 C 53.828125 29.046875 53.878906 29.050781 53.925781 29.050781 C 61.101562 29.050781 66.914062 23.113281 66.914062 15.789062 C 66.914062 8.457031 61.101562 2.523438 53.925781 2.523438 C 49.984375 2.523438 46.460938 4.324219 44.078125 7.15625 C 50.308594 9.800781 54.703125 16.078125 54.703125 23.390625 " fill-opacity="1" fill-rule="nonzero"></path></g><g clip-path="url(#fe21879656)"><path d="M 53.925781 32.632812 C 53.300781 32.632812 52.691406 32.652344 52.089844 32.675781 C 51.039062 34.378906 49.71875 35.894531 48.171875 37.144531 C 56.972656 39.304688 62.667969 44.175781 62.667969 50.28125 C 62.667969 50.8125 62.621094 51.328125 62.542969 51.835938 C 69.816406 50.261719 74.878906 46.753906 74.878906 42.679688 C 74.878906 37.128906 65.5 32.632812 53.925781 32.632812 " fill-opacity="1" fill-rule="nonzero"></path></g><path d="M 26.828125 37.144531 C 25.289062 35.894531 23.96875 34.382812 22.917969 32.675781 C 22.308594 32.652344 21.699219 32.632812 21.074219 32.632812 C 9.5 32.632812 0.121094 37.128906 0.121094 42.679688 C 0.121094 46.753906 5.191406 50.261719 12.457031 51.835938 C 12.371094 51.328125 12.332031 50.8125 12.332031 50.28125 C 12.332031 44.175781 18.035156 39.304688 26.828125 37.144531 " fill-opacity="1" fill-rule="nonzero"></path></g></g></g></svg>