<svg class="hidden xl:block w-1/12" xmlns="http://www.w3.org/2000/svg" viewBox="0 0 75 74.999997" version="1.0"><path fill="#ff914d" d="M 3.316406 30.316406 C 5.132812 30.316406 6.632812 28.816406 6.632812 27 L 6.632812 12.871094 C 6.632812 9.476562 9.394531 6.632812 12.871094 6.632812 L 27 6.632812 C 28.816406 6.632812 30.316406 5.132812 30.316406 3.316406 C 30.316406 1.5 28.816406 0 27 0 L 12.871094 0 C 5.765625 0 0 5.765625 0 12.871094 L 0 27 C 0 28.816406 1.5 30.316406 3.316406 30.316406 " fill-opacity="1" fill-rule="nonzero"></path><path fill="#ff914d" d="M 27 68.367188 L 12.871094 68.367188 C 9.476562 68.367188 6.632812 65.605469 6.632812 62.128906 L 6.632812 48 C 6.632812 46.183594 5.132812 44.683594 3.316406 44.683594 C 1.5 44.683594 0 46.183594 0 48 L 0 62.128906 C 0 69.234375 5.765625 75 12.871094 75 L 27 75 C 28.816406 75 30.316406 73.5 30.316406 71.683594 C 30.316406 69.867188 28.816406 68.367188 27 68.367188 " fill-opacity="1" fill-rule="nonzero"></path><path fill="#ff914d" d="M 71.683594 44.683594 C 69.867188 44.683594 68.367188 46.183594 68.367188 48 L 68.367188 62.128906 C 68.367188 65.523438 65.605469 68.367188 62.136719 68.367188 L 48 68.367188 C 46.183594 68.367188 44.683594 69.867188 44.683594 71.683594 C 44.683594 73.5 46.183594 75 48 75 L 62.136719 75 C 69.234375 75 75 69.234375 75 62.128906 L 75 48 C 75 46.183594 73.5 44.683594 71.683594 44.683594 " fill-opacity="1" fill-rule="nonzero"></path><path fill="#ff914d" d="M 48 6.632812 L 62.136719 6.632812 C 65.523438 6.632812 68.367188 9.394531 68.367188 12.871094 L 68.367188 27 C 68.367188 28.816406 69.867188 30.316406 71.683594 30.316406 C 73.5 30.316406 75 28.816406 75 27 L 75 12.871094 C 75 5.765625 69.234375 0 62.136719 0 L 48 0 C 46.183594 0 44.683594 1.5 44.683594 3.316406 C 44.683594 5.132812 46.183594 6.632812 48 6.632812 " fill-opacity="1" fill-rule="nonzero"></path><path fill="#ff914d" d="M 42.152344 30.867188 L 35.210938 37.8125 L 32.132812 34.738281 C 30.867188 33.472656 28.738281 33.472656 27.472656 34.738281 C 26.214844 36 26.214844 38.132812 27.472656 39.390625 L 32.847656 44.765625 C 33.472656 45.398438 34.34375 45.710938 35.210938 45.710938 C 36.082031 45.710938 36.867188 45.398438 37.578125 44.765625 L 46.894531 35.449219 C 48.160156 34.183594 48.160156 32.054688 46.894531 30.789062 C 45.550781 29.601562 43.5 29.601562 42.152344 30.867188 " fill-opacity="1" fill-rule="nonzero"></path><path fill="#ff914d" d="M 37.5 55.738281 C 27.472656 55.738281 19.261719 47.527344 19.261719 37.5 C 19.261719 27.472656 27.472656 19.261719 37.5 19.261719 C 47.527344 19.261719 55.738281 27.472656 55.738281 37.5 C 55.738281 47.527344 47.527344 55.738281 37.5 55.738281 Z M 62.367188 37.5 C 62.367188 23.765625 51.234375 12.632812 37.5 12.632812 C 23.765625 12.632812 12.632812 23.765625 12.632812 37.5 C 12.632812 51.234375 23.765625 62.367188 37.5 62.367188 C 51.234375 62.367188 62.367188 51.234375 62.367188 37.5 " fill-opacity="1" fill-rule="nonzero"></path></svg>