<svg class="hidden xl:block w-1/12" xmlns="http://www.w3.org/2000/svg" viewBox="0 0 75 74.999997" version="1.0"><path fill="#ff914d" d="M 37.472656 17.882812 C 38.757812 30.457031 31.367188 35.707031 29.28125 36.925781 C 29.296875 37.058594 29.308594 37.191406 29.308594 37.328125 L 29.308594 55.273438 L 32.753906 57.167969 L 50.859375 57.167969 C 50.898438 57.167969 50.9375 57.167969 50.976562 57.175781 C 55.144531 57.742188 55.308594 52.8125 55.3125 52.199219 C 55.285156 51.886719 55.457031 51.574219 55.761719 51.445312 C 58.378906 50.324219 57.265625 46.792969 57.164062 46.488281 C 57.03125 46.132812 57.1875 45.726562 57.535156 45.558594 L 57.539062 45.558594 C 60.925781 43.910156 58.796875 40.949219 58.515625 40.585938 C 58.292969 40.339844 58.253906 39.96875 58.441406 39.675781 L 58.445312 39.675781 C 64.585938 30.253906 45.390625 32.582031 44.164062 32.738281 C 44.070312 32.761719 43.96875 32.761719 43.863281 32.742188 C 43.460938 32.664062 43.199219 32.269531 43.277344 31.867188 C 46.140625 17.359375 39.535156 17.507812 37.472656 17.882812 " fill-opacity="1" fill-rule="evenodd"></path><path fill="#ff914d" d="M 28.074219 55.484375 L 28.074219 37.328125 C 28.074219 36.902344 27.898438 36.511719 27.617188 36.226562 C 27.332031 35.945312 26.941406 35.769531 26.515625 35.769531 L 16.90625 35.769531 C 16.480469 35.769531 16.089844 35.945312 15.804688 36.226562 C 15.523438 36.511719 15.347656 36.902344 15.347656 37.328125 L 15.347656 55.484375 C 15.347656 55.914062 15.523438 56.304688 15.804688 56.585938 C 16.089844 56.871094 16.480469 57.046875 16.90625 57.046875 L 26.515625 57.046875 C 26.941406 57.046875 27.332031 56.871094 27.617188 56.585938 C 27.847656 56.355469 28.007812 56.050781 28.058594 55.714844 C 28.054688 55.660156 28.0625 55.601562 28.074219 55.546875 C 28.074219 55.527344 28.074219 55.507812 28.074219 55.484375 " fill-opacity="1" fill-rule="evenodd"></path><path fill="#ff914d" d="M 37.5 0 C 58.125 0 75 16.875 75 37.5 C 75 58.125 58.125 75 37.5 75 C 16.875 75 0 58.125 0 37.5 C 0 16.875 16.875 0 37.5 0 Z M 37.5 4.152344 C 19.160156 4.152344 4.152344 19.160156 4.152344 37.5 C 4.152344 55.839844 19.160156 70.847656 37.5 70.847656 C 55.839844 70.847656 70.847656 55.839844 70.847656 37.5 C 70.847656 19.160156 55.839844 4.152344 37.5 4.152344 " fill-opacity="1" fill-rule="evenodd"></path></svg>