<svg class="hidden xl:block w-1/12" xmlns="http://www.w3.org/2000/svg" viewBox="0 0 75 74.999997" version="1.0"><path fill="#ff914d" d="M 37.335938 25.742188 C 30.871094 25.773438 25.628906 31.089844 25.648438 37.554688 C 25.675781 44.011719 30.972656 49.273438 37.429688 49.257812 C 43.890625 49.253906 49.171875 43.964844 49.171875 37.5 C 49.199219 36.285156 48.238281 35.28125 47.027344 35.253906 C 45.8125 35.226562 44.800781 36.191406 44.777344 37.40625 C 44.777344 37.441406 44.777344 37.464844 44.777344 37.5 C 44.777344 41.59375 41.515625 44.855469 37.429688 44.859375 C 33.34375 44.867188 30.074219 41.617188 30.0625 37.535156 C 30.039062 33.449219 33.277344 30.164062 37.363281 30.144531 C 38.585938 30.132812 39.5625 29.144531 39.554688 27.925781 C 39.546875 26.710938 38.558594 25.726562 37.34375 25.742188 C 37.335938 25.742188 37.335938 25.742188 37.335938 25.742188 Z M 37.414062 12.46875 C 23.617188 12.46875 12.375 23.703125 12.375 37.5 C 12.375 51.304688 23.617188 62.53125 37.414062 62.53125 C 51.21875 62.53125 62.445312 51.304688 62.445312 37.5 C 62.445312 33.773438 61.617188 30.078125 60.015625 26.710938 C 59.503906 25.609375 58.195312 25.125 57.085938 25.640625 C 55.976562 26.152344 55.496094 27.460938 56.007812 28.566406 C 56.015625 28.585938 56.03125 28.597656 56.035156 28.609375 C 57.359375 31.386719 58.050781 34.429688 58.050781 37.5 C 58.050781 48.925781 48.839844 58.132812 37.414062 58.132812 C 25.996094 58.132812 16.789062 48.925781 16.789062 37.5 C 16.789062 26.082031 25.996094 16.871094 37.414062 16.871094 C 40.4375 16.871094 43.40625 17.523438 46.136719 18.800781 C 47.214844 19.363281 48.542969 18.953125 49.113281 17.875 C 49.679688 16.800781 49.265625 15.472656 48.191406 14.90625 C 48.125 14.871094 48.070312 14.847656 48.003906 14.820312 C 44.6875 13.273438 41.082031 12.46875 37.414062 12.46875 Z M 63.421875 7.1875 L 63.601562 9.300781 C 63.6875 10.363281 64.53125 11.21875 65.601562 11.3125 L 67.726562 11.492188 L 63.722656 15.523438 L 59.75 15.164062 L 59.410156 11.199219 Z M 65.164062 0.0859375 C 64.59375 0.0976562 64.054688 0.335938 63.65625 0.734375 L 55.558594 8.8125 C 55.097656 9.273438 54.875 9.917969 54.925781 10.5625 L 55.429688 16.253906 L 36.3125 35.375 C 35.382812 36.15625 35.261719 37.546875 36.046875 38.476562 C 36.832031 39.40625 38.21875 39.527344 39.148438 38.734375 C 39.25 38.65625 39.335938 38.570312 39.414062 38.476562 L 58.433594 19.46875 L 64.351562 19.988281 C 64.996094 20.046875 65.640625 19.816406 66.101562 19.355469 L 74.179688 11.265625 C 75.035156 10.402344 75.027344 9.007812 74.160156 8.148438 C 73.800781 7.792969 73.320312 7.570312 72.816406 7.527344 L 67.828125 7.085938 L 67.390625 2.097656 C 67.296875 0.949219 66.320312 0.0664062 65.164062 0.0859375 Z M 37.414062 0.0859375 C 16.78125 0.0859375 0 16.867188 0 37.5 C 0 58.140625 16.78125 74.914062 37.414062 74.914062 C 58.054688 74.914062 74.828125 58.140625 74.828125 37.5 C 74.828125 32.359375 73.761719 27.269531 71.707031 22.558594 C 71.253906 21.429688 69.972656 20.886719 68.84375 21.335938 C 67.722656 21.789062 67.171875 23.070312 67.628906 24.199219 C 67.640625 24.238281 67.660156 24.285156 67.683594 24.328125 C 69.488281 28.484375 70.425781 32.96875 70.425781 37.5 C 70.425781 55.753906 55.671875 70.515625 37.414062 70.515625 C 19.160156 70.515625 4.40625 55.753906 4.40625 37.5 C 4.40625 19.246094 19.160156 4.488281 37.414062 4.488281 C 41.953125 4.488281 46.429688 5.417969 50.589844 7.234375 C 51.691406 7.757812 53 7.292969 53.523438 6.195312 C 54.050781 5.101562 53.589844 3.785156 52.488281 3.261719 C 52.449219 3.242188 52.410156 3.21875 52.363281 3.207031 C 47.652344 1.15625 42.5625 0.0859375 37.414062 0.0859375 " fill-opacity="1" fill-rule="nonzero"></path></svg>