<svg class="hidden xl:block w-1/12" xmlns="http://www.w3.org/2000/svg" viewBox="0 0 75 74.999997" version="1.0"><defs><clipPath id="d92cfe41dd"><path d="M 2.859375 8 L 71.859375 8 L 71.859375 75 L 2.859375 75 Z M 2.859375 8 " clip-rule="nonzero"></path></clipPath></defs><g clip-path="url(#d92cfe41dd)"><path fill="#ff914d" d="M 51.546875 8.875 C 51.730469 9.128906 51.929688 9.382812 52.101562 9.644531 C 53.296875 11.414062 53.417969 13.703125 52.40625 15.601562 C 52.371094 15.667969 52.3125 15.71875 52.277344 15.78125 C 60.542969 20.851562 66.089844 29.96875 66.089844 40.382812 C 66.089844 56.289062 53.199219 69.230469 37.359375 69.230469 C 21.519531 69.230469 8.628906 56.289062 8.628906 40.382812 C 8.628906 29.953125 14.191406 20.824219 22.476562 15.757812 C 22.445312 15.699219 22.398438 15.660156 22.367188 15.601562 C 21.355469 13.703125 21.476562 11.417969 22.679688 9.632812 C 22.859375 9.363281 23.066406 9.101562 23.257812 8.828125 C 11.265625 14.257812 2.882812 26.34375 2.882812 40.382812 C 2.882812 59.472656 18.347656 75 37.359375 75 C 56.371094 75 71.835938 59.472656 71.835938 40.382812 C 71.835938 26.378906 63.496094 14.320312 51.546875 8.875 Z M 51.546875 8.875 " fill-opacity="1" fill-rule="nonzero"></path></g><path fill="#ff914d" d="M 36.480469 0.441406 C 36.746094 0.230469 37.066406 0.125 37.386719 0.125 C 37.707031 0.125 38.027344 0.234375 38.289062 0.441406 C 38.546875 0.644531 44.628906 6.277344 48.527344 12.066406 C 48.832031 12.511719 48.855469 13.089844 48.605469 13.5625 C 48.351562 14.039062 47.855469 14.335938 47.3125 14.335938 L 42.222656 14.335938 C 42.222656 14.335938 41.527344 35.5625 41.160156 36.082031 C 40.617188 36.851562 38.855469 37.375 37.386719 37.375 C 35.921875 37.375 34.367188 36.851562 33.828125 36.082031 C 33.457031 35.5625 32.554688 14.335938 32.554688 14.335938 L 27.453125 14.335938 C 26.917969 14.335938 26.421875 14.039062 26.167969 13.5625 C 25.914062 13.089844 25.941406 12.511719 26.242188 12.066406 C 30.140625 6.277344 36.222656 0.644531 36.480469 0.441406 Z M 36.480469 0.441406 " fill-opacity="1" fill-rule="nonzero"></path></svg>