<?xml version="1.0" encoding="utf-8"?>
<!-- Generator: Adobe Illustrator 23.0.3, SVG Export Plug-In . SVG Version: 6.00 Build 0)  -->
<svg version="1.1" id="Calque_1" xmlns="http://www.w3.org/2000/svg" xmlns:xlink="http://www.w3.org/1999/xlink" x="0px" y="0px"
	 viewBox="0 0 552 362" style="enable-background:new 0 0 552 362;" xml:space="preserve">
<style type="text/css">
	.st0{fill:#AFD1E7;}
</style>
<title>edi</title>
<g>
	<g id="Calque_1-2">
		<path class="st0" d="M363.8,181.4l-11.4,0v53.9h11.2c11.5,0,25.1-3.5,25.1-19.9v-14C388.7,184.9,375.2,181.4,363.8,181.4z
			 M363.8,181.4l-11.4,0v53.9h11.2c11.5,0,25.1-3.5,25.1-19.9v-14C388.7,184.9,375.2,181.4,363.8,181.4z M363.8,181.4l-11.4,0v53.9
			h11.2c11.5,0,25.1-3.5,25.1-19.9v-14C388.7,184.9,375.2,181.4,363.8,181.4z M363.8,181.4l-11.4,0v53.9h11.2
			c11.5,0,25.1-3.5,25.1-19.9v-14C388.7,184.9,375.2,181.4,363.8,181.4z M363.8,181.4l-11.4,0v53.9h11.2c11.5,0,25.1-3.5,25.1-19.9
			v-14C388.7,184.9,375.2,181.4,363.8,181.4z"/>
		<path class="st0" d="M546.7,85.2L466.6,5.3c-3.4-3.4-8-5.3-12.8-5.3H298c-20,0.1-36.1,16.2-36.3,36.2v90.5
			c-13.3,0-24.9,7.1-31.2,17.8h-63.8l-18.6-27c-0.6-0.9-1.7-1.5-2.9-1.4H99.8c-1.9-13.9-14.8-23.7-28.7-21.8
			C57.2,96.2,47.5,109,49.4,123c1.7,12.7,12.6,22.1,25.4,22c12.7,0,23.5-9.4,25.2-22h43.5l18.6,26.9c0.6,0.9,1.7,1.5,2.9,1.4h62.3
			c-1.2,3.6-1.9,7.5-1.9,11.5c0,0,0,0,0,0v21.4h-64.7c-1.9-14-14.8-23.7-28.7-21.8c-14,1.9-23.7,14.8-21.8,28.7
			c1.9,14,14.8,23.7,28.7,21.8c11.4-1.5,20.3-10.5,21.8-21.8h64.7v37.3h-50.7c-1.2,0-2.3,0.6-3,1.6l-13.5,21.5h-59l-14.6-27.2
			c-0.6-1.1-1.7-1.9-3-1.9h-31c-1.9-14-14.8-23.7-28.7-21.8c-14,1.9-23.7,14.8-21.8,28.7c1.9,13.9,14.8,23.7,28.7,21.8
			c11.4-1.5,20.3-10.5,21.8-21.8h28.8l14.6,27.2c0.6,1.2,1.7,1.9,3,1.9h63c1.2,0,2.3-0.6,3-1.6l13.5-21.5h48.9v18.1
			c0,5.6,1.3,10.9,3.5,15.6h-13.7c-1.2,0-2.4,0.7-3,1.7L196,298.5h-83.4c-1.9-14-14.8-23.7-28.7-21.8c-14,1.9-23.7,14.8-21.8,28.7
			c1.9,14,14.8,23.7,28.7,21.8c11.4-1.5,20.3-10.5,21.8-21.8h85.4c1.2,0,2.4-0.7,3-1.7l16.3-27.8h16c6.6,8.4,16.9,13.7,28.4,13.7
			c0,0,0,0,0,0v36.2c0.2,20,16.3,36.1,36.3,36.2h217.7c20-0.1,36.2-16.2,36.3-36.2V98C552,93.2,550.1,88.6,546.7,85.2z M74.8,138
			c-10.2,0-18.5-8.3-18.5-18.5v0c0-10.2,8.3-18.5,18.5-18.5c10.2,0,18.5,8.3,18.5,18.5C93.3,129.7,85,138,74.8,138z M135.6,206.3
			h-0.1c-10.3,0-18.6-8.3-18.6-18.5c0-10.3,8.3-18.6,18.5-18.6c10.2,0,18.6,8.3,18.6,18.5C154.1,197.9,145.8,206.3,135.6,206.3z
			 M25.5,244.6c-10.2,0-18.5-8.3-18.5-18.5c0-10.2,8.3-18.5,18.5-18.5c10.2,0,18.5,8.3,18.5,18.5C44,236.3,35.7,244.6,25.5,244.6z
			 M105.8,302c0.1,10.1-8.1,18.4-18.2,18.5h-0.3c-10.2,0-18.5-8.3-18.5-18.5s8.3-18.5,18.5-18.5C97.6,283.6,105.8,291.8,105.8,302
			L105.8,302z M282.9,253.4c-2-0.3-4-0.3-5.9,0h-15.3v-90.5h15.1c2,0.3,4,0.3,5.9,0h33.4V181h-36.3v18.1h29v18.1h-29v18.1h36.3v18.1
			H282.9z M515.7,325.8H298v-36.2h145.1c20,0,36.3-16.2,36.3-36.2v-90.5c0-20-16.3-36.2-36.3-36.2H298V36.2h145.1v54.3
			c0,10,8.1,18.1,18.1,18.1h54.4V325.8z M334.2,253.4l0-90.1h29.5c28.7,0,43,17.2,43,38.1v14c0,21.1-14.3,38-43.3,38H334.2z
			 M425,162.9h18.1v90.5H425L425,162.9z"/>
	</g>
</g>
</svg>
