<svg class="w-24" xmlns="http://www.w3.org/2000/svg" viewBox="0 0 75 74.999997" version="1.0"><defs><clipPath id="e7df877977"><path d="M 26 1.640625 L 49 1.640625 L 49 25 L 26 25 Z M 26 1.640625 " clip-rule="nonzero"></path></clipPath><clipPath id="494e6a9424"><path d="M 17 63 L 58 63 L 58 73.640625 L 17 73.640625 Z M 17 63 " clip-rule="nonzero"></path></clipPath></defs><path fill="#ff914d" d="M 63.578125 70.367188 C 57.289062 70.367188 52.167969 65.230469 52.167969 58.914062 C 52.167969 52.597656 57.289062 47.457031 63.578125 47.457031 C 69.871094 47.457031 74.988281 52.597656 74.988281 58.914062 C 74.988281 65.230469 69.871094 70.367188 63.578125 70.367188 Z M 63.578125 50.730469 C 59.085938 50.730469 55.429688 54.398438 55.429688 58.914062 C 55.429688 63.425781 59.085938 67.09375 63.578125 67.09375 C 68.074219 67.09375 71.730469 63.425781 71.730469 58.914062 C 71.730469 54.398438 68.074219 50.730469 63.578125 50.730469 Z M 63.578125 50.730469 " fill-opacity="1" fill-rule="nonzero"></path><g clip-path="url(#e7df877977)"><path fill="#ff914d" d="M 37.5 24.550781 C 31.207031 24.550781 26.089844 19.410156 26.089844 13.09375 C 26.089844 6.777344 31.207031 1.640625 37.5 1.640625 C 43.792969 1.640625 48.910156 6.777344 48.910156 13.09375 C 48.910156 19.410156 43.792969 24.550781 37.5 24.550781 Z M 37.5 4.914062 C 33.003906 4.914062 29.351562 8.582031 29.351562 13.09375 C 29.351562 17.609375 33.003906 21.277344 37.5 21.277344 C 41.996094 21.277344 45.648438 17.609375 45.648438 13.09375 C 45.648438 8.582031 41.996094 4.914062 37.5 4.914062 Z M 37.5 4.914062 " fill-opacity="1" fill-rule="nonzero"></path></g><path fill="#ff914d" d="M 11.421875 70.367188 C 5.128906 70.367188 0.0117188 65.230469 0.0117188 58.914062 C 0.0117188 52.597656 5.128906 47.457031 11.421875 47.457031 C 17.710938 47.457031 22.832031 52.597656 22.832031 58.914062 C 22.832031 65.230469 17.710938 70.367188 11.421875 70.367188 Z M 11.421875 50.730469 C 6.925781 50.730469 3.269531 54.398438 3.269531 58.914062 C 3.269531 63.425781 6.925781 67.09375 11.421875 67.09375 C 15.914062 67.09375 19.570312 63.425781 19.570312 58.914062 C 19.570312 54.398438 15.914062 50.730469 11.421875 50.730469 Z M 11.421875 50.730469 " fill-opacity="1" fill-rule="nonzero"></path><g clip-path="url(#494e6a9424)"><path fill="#ff914d" d="M 37.5 73.640625 C 30.332031 73.640625 23.339844 71.125 17.816406 66.554688 C 17.121094 65.980469 17.023438 64.953125 17.597656 64.25 C 18.167969 63.558594 19.195312 63.457031 19.894531 64.03125 C 24.828125 68.121094 31.085938 70.367188 37.5 70.367188 C 43.921875 70.367188 50.179688 68.117188 55.117188 64.023438 C 55.804688 63.441406 56.839844 63.539062 57.410156 64.242188 C 57.984375 64.9375 57.886719 65.96875 57.191406 66.546875 C 51.671875 71.121094 44.675781 73.640625 37.5 73.640625 Z M 37.5 73.640625 " fill-opacity="1" fill-rule="nonzero"></path></g><path fill="#ff914d" d="M 66.039062 51.054688 C 65.914062 51.054688 65.785156 51.042969 65.660156 51.007812 C 64.78125 50.800781 64.242188 49.917969 64.453125 49.035156 C 64.957031 46.933594 65.210938 44.75 65.210938 42.550781 C 65.210938 30.785156 57.792969 20.242188 46.75 16.320312 C 45.902344 16.015625 45.457031 15.082031 45.753906 14.226562 C 46.0625 13.375 46.988281 12.933594 47.835938 13.230469 C 60.175781 17.617188 68.46875 29.398438 68.46875 42.550781 C 68.46875 45.003906 68.183594 47.441406 67.621094 49.796875 C 67.445312 50.546875 66.773438 51.054688 66.039062 51.054688 Z M 66.039062 51.054688 " fill-opacity="1" fill-rule="nonzero"></path><path fill="#ff914d" d="M 8.960938 51.046875 C 8.21875 51.046875 7.550781 50.542969 7.375 49.789062 C 6.8125 47.425781 6.53125 44.992188 6.53125 42.550781 C 6.53125 29.324219 14.886719 17.519531 27.324219 13.171875 C 28.164062 12.882812 29.101562 13.328125 29.402344 14.183594 C 29.695312 15.039062 29.246094 15.972656 28.394531 16.269531 C 17.269531 20.152344 9.789062 30.714844 9.789062 42.550781 C 9.789062 44.734375 10.042969 46.917969 10.542969 49.027344 C 10.753906 49.910156 10.210938 50.789062 9.335938 51 C 9.210938 51.03125 9.082031 51.046875 8.960938 51.046875 Z M 8.960938 51.046875 " fill-opacity="1" fill-rule="nonzero"></path></svg>