<svg class="w-24" xmlns="http://www.w3.org/2000/svg" viewBox="0 0 75 74.999997" version="1.0"><defs><clipPath id="7e2f3bf340"><path d="M 6.886719 0 L 68.386719 0 L 68.386719 75 L 6.886719 75 Z M 6.886719 0 " clip-rule="nonzero"></path></clipPath></defs><g clip-path="url(#7e2f3bf340)"><path fill="#ff914d" d="M 32.398438 43.976562 L 49.433594 27.003906 C 49.613281 26.832031 49.816406 26.703125 50.046875 26.609375 C 50.273438 26.519531 50.511719 26.472656 50.761719 26.472656 C 51.007812 26.46875 51.246094 26.515625 51.476562 26.605469 C 51.703125 26.695312 51.910156 26.828125 52.089844 26.996094 C 52.265625 27.171875 52.398438 27.371094 52.496094 27.601562 C 52.589844 27.828125 52.640625 28.066406 52.640625 28.316406 C 52.640625 28.5625 52.59375 28.800781 52.5 29.03125 C 52.40625 29.257812 52.269531 29.460938 52.097656 29.636719 L 33.511719 48.15625 C 33.144531 48.523438 32.703125 48.707031 32.183594 48.707031 L 32.179688 48.707031 C 31.664062 48.707031 31.222656 48.527344 30.859375 48.164062 C 30.78125 48.085938 30.714844 48.007812 30.652344 47.917969 L 22.996094 38.863281 C 22.851562 38.664062 22.746094 38.441406 22.6875 38.199219 C 22.628906 37.957031 22.617188 37.714844 22.65625 37.46875 C 22.695312 37.222656 22.78125 36.992188 22.914062 36.78125 C 23.042969 36.570312 23.210938 36.390625 23.414062 36.246094 C 23.617188 36.097656 23.839844 35.996094 24.082031 35.941406 C 24.328125 35.882812 24.574219 35.875 24.820312 35.917969 C 25.066406 35.957031 25.296875 36.042969 25.507812 36.175781 C 25.71875 36.308594 25.898438 36.476562 26.042969 36.679688 Z M 68.300781 42.578125 C 68.347656 48.140625 65.097656 54.703125 59.15625 61.058594 C 56.59375 63.789062 53.789062 66.242188 50.742188 68.421875 L 50.609375 68.507812 C 50.558594 68.535156 50.507812 68.570312 50.460938 68.613281 L 50.335938 68.710938 C 46.703125 71.320312 42.773438 73.363281 38.550781 74.84375 L 38.015625 75.023438 L 37.476562 74.855469 C 36.191406 74.445312 34.929688 73.972656 33.695312 73.429688 C 33.617188 73.390625 33.539062 73.355469 33.457031 73.324219 L 33.351562 73.28125 C 27.042969 70.359375 21.472656 66.402344 16.644531 61.410156 C 14.113281 58.84375 11.949219 56 10.152344 52.878906 L 10.085938 52.75 C 10.058594 52.691406 10.027344 52.632812 9.988281 52.582031 L 9.914062 52.460938 C 8.234375 49.558594 7.324219 46.433594 7.191406 43.085938 L 6.972656 16.324219 L 7.101562 16.253906 L 37.386719 0 L 37.503906 0.0585938 L 68.078125 15.832031 Z M 64.625 17.941406 L 37.421875 3.917969 L 10.46875 18.382812 L 10.671875 43.058594 C 10.800781 45.808594 11.5625 48.378906 12.949219 50.761719 C 13.054688 50.921875 13.144531 51.085938 13.226562 51.257812 C 14.871094 54.089844 16.84375 56.675781 19.148438 59.007812 C 23.648438 63.667969 28.839844 67.363281 34.722656 70.097656 C 34.878906 70.15625 35.03125 70.222656 35.179688 70.296875 C 36.109375 70.691406 37.082031 71.070312 37.984375 71.371094 C 41.65625 70.015625 45.082031 68.195312 48.265625 65.921875 C 48.425781 65.789062 48.597656 65.667969 48.777344 65.558594 C 51.613281 63.527344 54.222656 61.238281 56.609375 58.695312 C 61.941406 52.992188 64.859375 47.277344 64.820312 42.605469 Z M 64.625 17.941406 " fill-opacity="1" fill-rule="nonzero"></path></g></svg>