<svg xmlns="http://www.w3.org/2000/svg" xmlns:xlink="http://www.w3.org/1999/xlink" viewBox="0 0 100.02 26.55"><defs><style>.cls-1{fill:none;}.cls-2{fill:#fff;opacity:0.5;}.cls-3{clip-path:url(#clip-path);}.cls-4,.cls-9{fill:#ff5757;}.cls-11,.cls-4{fill-rule:evenodd;}.cls-5{clip-path:url(#clip-path-2);}.cls-6{clip-path:url(#clip-path-4);}.cls-7{clip-path:url(#clip-path-5);}.cls-8{clip-path:url(#clip-path-6);}.cls-10{clip-path:url(#clip-path-7);}.cls-11,.cls-18{fill:#00c4cc;}.cls-12{clip-path:url(#clip-path-8);}.cls-13{clip-path:url(#clip-path-9);}.cls-14{clip-path:url(#clip-path-10);}.cls-15{clip-path:url(#clip-path-11);}.cls-16{clip-path:url(#clip-path-12);}.cls-17{clip-path:url(#clip-path-13);}</style><clipPath id="clip-path"><rect class="cls-1" x="15.7" y="4.86" width="2.67" height="1.63"/></clipPath><clipPath id="clip-path-2"><rect class="cls-1" x="13.31" y="5.15" width="2.39" height="2.67"/></clipPath><clipPath id="clip-path-4"><rect class="cls-1" x="19.7" y="5.15" width="1.89" height="2.67"/></clipPath><clipPath id="clip-path-5"><rect class="cls-1" x="15.7" y="4.86" width="4" height="1.63"/></clipPath><clipPath id="clip-path-6"><rect class="cls-1" x="13.31" y="5.15" width="8.28" height="8.84"/></clipPath><clipPath id="clip-path-7"><rect class="cls-1" x="86.36" y="4.08" width="8.87" height="9.82"/></clipPath><clipPath id="clip-path-8"><rect class="cls-1" x="89.03" y="4.08" width="2.67" height="2.4"/></clipPath><clipPath id="clip-path-9"><rect class="cls-1" x="90.36" y="4.08" width="1.33" height="2.4"/></clipPath><clipPath id="clip-path-10"><rect class="cls-1" x="93.03" y="5.15" width="2.2" height="2.67"/></clipPath><clipPath id="clip-path-11"><rect class="cls-1" x="93.03" y="4.08" width="2.2" height="2.4"/></clipPath><clipPath id="clip-path-12"><rect class="cls-1" x="89.03" y="4.08" width="4" height="1.07"/></clipPath><clipPath id="clip-path-13"><rect class="cls-1" x="85.87" y="7.82" width="4.49" height="2.67"/></clipPath></defs><title>days_1</title><g id="Calque_2" data-name="Calque 2"><g id="Calque_2-2" data-name="Calque 2"><circle class="cls-2" cx="13.28" cy="13.28" r="13.28"/><circle class="cls-2" cx="86.74" cy="13.28" r="13.28"/></g><g id="Calque_1-2" data-name="Calque 1"><path class="cls-2" d="M36.23,6.05V9.54L40.82,13l-4.59,3.46V20l9.2-7Zm8.74,0V9.54L49.56,13,45,16.48V20l9.19-7Zm8.74,0V9.54L58.3,13l-4.59,3.46V20l9.19-7Z"/><g class="cls-3"><path class="cls-4" d="M16.68,6a.32.32,0,0,0,.32.31h.85A.31.31,0,0,0,18.16,6V5.16a.31.31,0,0,0-.31-.32H17a.32.32,0,0,0-.32.32Z"/></g><g class="cls-5"><path class="cls-4" d="M15.11,6.63l-.6-.6a.32.32,0,0,0-.45.45l.6.6a.32.32,0,1,0,.45-.45Z"/></g><path class="cls-4" d="M20.19,7.08l.6-.6A.32.32,0,0,0,20.34,6l-.6.6a.32.32,0,1,0,.45.45Z"/><g class="cls-5"><path class="cls-4" d="M14,6.87,14.89,6a.31.31,0,0,0,0-.45.3.3,0,0,0-.44,0l-.85.85a.31.31,0,0,0,0,.45A.3.3,0,0,0,14,6.87Z"/></g><g class="cls-6"><path class="cls-4" d="M21.25,6.42l-.85-.85a.31.31,0,0,0-.45,0A.33.33,0,0,0,20,6l.85.85a.31.31,0,0,0,.45,0A.33.33,0,0,0,21.25,6.42Z"/></g><g class="cls-7"><path class="cls-4" d="M16.58,5.48h1.69a.32.32,0,0,0,.32-.32.32.32,0,0,0-.32-.32H16.58a.32.32,0,0,0-.32.32A.32.32,0,0,0,16.58,5.48Z"/></g><g class="cls-8"><path class="cls-4" d="M17.43,5.69a4.15,4.15,0,1,0,4.13,4.14A4.14,4.14,0,0,0,17.43,5.69ZM17.11,7.5V9.62a.29.29,0,0,0,.09.22l1.27,1.28a.31.31,0,0,0,.45,0,.33.33,0,0,0,0-.45L17.74,9.49v-2a.32.32,0,1,0-.63,0Z"/></g><path class="cls-9" d="M12.33,13.53v1.79h-1.8v2.5H8.26v-2.5H2.72V13.61l6-8.54h1.85v8.46Zm-7.44,0H8.26V8.67Z"/><path class="cls-9" d="M14,17.53a.41.41,0,0,1-.19-.05.26.26,0,0,1-.15-.06l.07-.16a.46.46,0,0,0,.27.08.22.22,0,0,0,.18-.08.35.35,0,0,0,.07-.23V15.28h.23V17a.48.48,0,0,1-.13.35A.46.46,0,0,1,14,17.53Zm.37-2.63a.12.12,0,0,1-.1,0,.13.13,0,0,1,0-.1.14.14,0,0,1,0-.11.11.11,0,0,1,.1-.06.18.18,0,0,1,.13.06.18.18,0,0,1,0,.11.18.18,0,0,1,0,.1A.2.2,0,0,1,14.4,14.9Z"/><path class="cls-9" d="M15.79,16.92a.89.89,0,0,1-.44-.1,1.06,1.06,0,0,1-.29-.31.87.87,0,0,1-.1-.42.89.89,0,0,1,.1-.44.81.81,0,0,1,.29-.29.89.89,0,0,1,.44-.1.87.87,0,0,1,.42.1.84.84,0,0,1,.41.73.79.79,0,0,1-.12.42,1.06,1.06,0,0,1-.29.31A.87.87,0,0,1,15.79,16.92Zm0-.21a.65.65,0,0,0,.29-.06.57.57,0,0,0,.23-.23.7.7,0,0,0,.08-.33.67.67,0,0,0-.08-.33.57.57,0,0,0-.23-.23.48.48,0,0,0-.29-.09.6.6,0,0,0-.33.09.52.52,0,0,0-.21.23.81.81,0,0,0-.06.33.84.84,0,0,0,.06.33.52.52,0,0,0,.21.23A.84.84,0,0,0,15.79,16.71Z"/><path class="cls-9" d="M18.52,15.28V16.9h-.21v-.29a.51.51,0,0,1-.25.23.58.58,0,0,1-.33.08.73.73,0,0,1-.5-.16.78.78,0,0,1-.19-.55v-.93h.23v.91a.57.57,0,0,0,.13.4.48.48,0,0,0,.35.12.53.53,0,0,0,.4-.14.6.6,0,0,0,.16-.44v-.85Z"/><path class="cls-9" d="M19.36,15.59a.56.56,0,0,1,.23-.25.75.75,0,0,1,.37-.08v.2h0a.54.54,0,0,0-.42.17.58.58,0,0,0-.14.44v.83h-.21V15.28h.21Z"/><path class="cls-9" d="M20.83,16.92a1.34,1.34,0,0,1-.4-.06.87.87,0,0,1-.27-.15l.1-.16a.8.8,0,0,0,.59.18.66.66,0,0,0,.31-.06.24.24,0,0,0,.12-.21.17.17,0,0,0-.06-.14.42.42,0,0,0-.16-.09l-.23,0a1.86,1.86,0,0,1-.32-.08.46.46,0,0,1-.2-.13.37.37,0,0,1-.09-.27.36.36,0,0,1,.17-.31.74.74,0,0,1,.48-.14,1,1,0,0,1,.29,0,1.18,1.18,0,0,1,.27.1l-.08.19a.81.81,0,0,0-.48-.15.59.59,0,0,0-.34.09.19.19,0,0,0-.1.18.22.22,0,0,0,.06.17.34.34,0,0,0,.15.06l.25.07a2.24,2.24,0,0,1,.31.08.38.38,0,0,1,.21.12.36.36,0,0,1,.08.23.42.42,0,0,1-.18.36A.85.85,0,0,1,20.83,16.92Z"/><path class="cls-9" d="M8.05,18.67H7.59v-.1H8.65v.1H8.2v1.19H8.05Z"/><path class="cls-9" d="M9,19.07a.22.22,0,0,1,.12-.13.46.46,0,0,1,.23-.06V19h0a.28.28,0,0,0-.25.11.32.32,0,0,0-.08.25v.5H8.84v-1H9Z"/><path class="cls-9" d="M9.91,18.88a.42.42,0,0,1,.3.1.37.37,0,0,1,.1.27v.61h-.12v-.15a.69.69,0,0,1-.13.11.44.44,0,0,1-.21,0,.45.45,0,0,1-.27-.07.24.24,0,0,1-.08-.2.2.2,0,0,1,.08-.19.5.5,0,0,1,.29-.08h.32v-.07a.23.23,0,0,0-.09-.18A.21.21,0,0,0,9.91,19a.48.48,0,0,0-.18,0,.38.38,0,0,0-.15.09L9.52,19a.37.37,0,0,1,.19-.08A.45.45,0,0,1,9.91,18.88Zm0,.87a.41.41,0,0,0,.19,0,.36.36,0,0,0,.13-.14V19.4H9.87c-.16,0-.25.06-.25.19a.13.13,0,0,0,.07.12A.3.3,0,0,0,9.87,19.75Z"/><path class="cls-9" d="M10.67,18.88h.13v1h-.13Zm.06-.21a.08.08,0,0,1-.06,0,.24.24,0,0,1,0-.08s0,0,0-.05a.07.07,0,0,1,.06,0,.1.1,0,0,1,.07,0s0,0,0,.05,0,.05,0,.08Z"/><path class="cls-9" d="M11.67,19.79a.11.11,0,0,1-.08.07h-.11a.24.24,0,0,1-.29-.27V19H11v-.12h.17v-.21h.12v.21h.3V19h-.3v.57a.18.18,0,0,0,0,.14s.06,0,.12,0h.08l.07,0Z"/><path class="cls-9" d="M12.77,19.42h-.83a.36.36,0,0,0,.4.33.32.32,0,0,0,.14,0,.49.49,0,0,0,.15-.1l.08.08a.37.37,0,0,1-.17.13l-.2,0a.58.58,0,0,1-.3-.07.41.41,0,0,1-.16-.16.61.61,0,0,1-.06-.25.49.49,0,0,1,.06-.25.38.38,0,0,1,.16-.19.51.51,0,0,1,.25-.06.44.44,0,0,1,.23.06.35.35,0,0,1,.19.19.49.49,0,0,1,.06.25ZM12.29,19a.36.36,0,0,0-.25.11.38.38,0,0,0-.1.23h.71a.35.35,0,0,0-.13-.23A.27.27,0,0,0,12.29,19Z"/><path class="cls-9" d="M14.24,18.88a.42.42,0,0,1,.3.1.48.48,0,0,1,.1.31v.57h-.13v-.57a.25.25,0,0,0-.08-.2.23.23,0,0,0-.21-.09.28.28,0,0,0-.23.11.32.32,0,0,0-.08.23v.52h-.15v-.57a.25.25,0,0,0-.08-.2.21.21,0,0,0-.19-.09.34.34,0,0,0-.25.11.32.32,0,0,0-.08.23v.52H13v-1h.12v.19a.28.28,0,0,1,.13-.15.51.51,0,0,1,.22,0,.33.33,0,0,1,.21.06.28.28,0,0,1,.15.15.23.23,0,0,1,.14-.15A.46.46,0,0,1,14.24,18.88Z"/><path class="cls-9" d="M15.85,19.42H15a.34.34,0,0,0,.39.33.34.34,0,0,0,.15,0,.45.45,0,0,0,.14-.1l.09.08a.37.37,0,0,1-.17.13l-.21,0a.54.54,0,0,1-.29-.07.52.52,0,0,1-.17-.16.61.61,0,0,1-.06-.25.49.49,0,0,1,.06-.25.46.46,0,0,1,.17-.19.49.49,0,0,1,.25-.06.46.46,0,0,1,.23.06.39.39,0,0,1,.19.19.49.49,0,0,1,.06.25ZM15.37,19a.34.34,0,0,0-.25.11.33.33,0,0,0-.1.23h.71a.35.35,0,0,0-.13-.23A.28.28,0,0,0,15.37,19Z"/><path class="cls-9" d="M16.61,18.88a.36.36,0,0,1,.27.1.37.37,0,0,1,.13.31v.57h-.13v-.57a.25.25,0,0,0-.08-.2.27.27,0,0,0-.21-.09.37.37,0,0,0-.27.11.28.28,0,0,0-.08.23v.52h-.13v-1h.13v.19a.23.23,0,0,1,.14-.13A.46.46,0,0,1,16.61,18.88Z"/><path class="cls-9" d="M17.86,19.79a.1.1,0,0,1-.08.07h-.1a.32.32,0,0,1-.23-.07.32.32,0,0,1-.07-.2V19h-.16v-.12h.16v-.21h.13v.21h.29V19h-.29v.57a.18.18,0,0,0,0,.14.17.17,0,0,0,.13,0h.08a.09.09,0,0,0,.06,0Z"/><path class="cls-9" d="M9.07,22.4a.6.6,0,0,1-.27-.06.55.55,0,0,1-.17-.17.57.57,0,0,1-.06-.25.49.49,0,0,1,.06-.25.45.45,0,0,1,.17-.19.6.6,0,0,1,.27-.06.46.46,0,0,1,.23.06.43.43,0,0,1,.17.13l-.11.06a.65.65,0,0,0-.12-.11.59.59,0,0,0-.17,0,.43.43,0,0,0-.31.19.46.46,0,0,0,0,.21.41.41,0,0,0,0,.19.39.39,0,0,0,.12.14.41.41,0,0,0,.19,0,.38.38,0,0,0,.17,0,.29.29,0,0,0,.12-.1l.11.06a.4.4,0,0,1-.17.15A.59.59,0,0,1,9.07,22.4Z"/><path class="cls-9" d="M9.72,21h.12V22.4H9.72Z"/><path class="cls-9" d="M10.55,21.42a.46.46,0,0,1,.29.1.33.33,0,0,1,.1.27v.61h-.12v-.15a.47.47,0,0,1-.13.11.44.44,0,0,1-.21,0,.54.54,0,0,1-.27-.06.32.32,0,0,1-.08-.21.23.23,0,0,1,.08-.19.5.5,0,0,1,.29-.08h.32v-.07a.32.32,0,0,0-.27-.27.49.49,0,0,0-.19,0,.38.38,0,0,0-.15.09l-.06-.11a.47.47,0,0,1,.19-.08A.49.49,0,0,1,10.55,21.42Zm-.05.87a.41.41,0,0,0,.19,0,.26.26,0,0,0,.13-.14v-.17H10.5c-.16,0-.25.06-.25.19a.12.12,0,0,0,.07.12A.3.3,0,0,0,10.5,22.29Z"/><path class="cls-9" d="M11.55,22.4l-.23,0-.16-.09.06-.1a.53.53,0,0,0,.15.08.65.65,0,0,0,.2,0,.32.32,0,0,0,.19,0,.13.13,0,0,0,.06-.12.08.08,0,0,0,0-.07A.18.18,0,0,0,11.7,22l-.13,0-.2-.06a.31.31,0,0,1-.13-.06.31.31,0,0,1,0-.17.21.21,0,0,1,.1-.19.5.5,0,0,1,.29-.08l.17,0,.17.06-.06.11a.45.45,0,0,0-.28-.09.24.24,0,0,0-.2.07c-.05,0-.07.06-.07.1a.1.1,0,0,0,0,.1l.08.05.14,0,.19,0a.22.22,0,0,1,.13.08.2.2,0,0,1,.06.15.25.25,0,0,1-.13.21A.57.57,0,0,1,11.55,22.4Z"/><path class="cls-9" d="M12.46,22.4l-.23,0a.65.65,0,0,1-.17-.09l.06-.1a.53.53,0,0,0,.15.08.71.71,0,0,0,.21,0,.3.3,0,0,0,.18,0,.12.12,0,0,0,.07-.12.1.1,0,0,0,0-.07L12.6,22l-.12,0-.21-.06-.13-.06a.31.31,0,0,1,0-.17.2.2,0,0,1,.11-.19.46.46,0,0,1,.29-.08l.16,0,.17.06-.06.11a.4.4,0,0,0-.27-.09.25.25,0,0,0-.21.07.12.12,0,0,0-.06.1.12.12,0,0,0,0,.1l.08.05.15,0,.19,0a.2.2,0,0,1,.12.08.2.2,0,0,1,.06.15.26.26,0,0,1-.12.21A.6.6,0,0,1,12.46,22.4Z"/><path class="cls-9" d="M13.11,21.42h.13v1h-.13Zm.06-.21s-.05,0-.06,0a.12.12,0,0,1,0-.08.06.06,0,0,1,0-.05.07.07,0,0,1,.06,0,.1.1,0,0,1,.07,0l0,.05s0,.05,0,.08A.08.08,0,0,1,13.17,21.21Z"/><path class="cls-9" d="M14.5,21.42v1.33h-.14v-.54a.35.35,0,0,1-.17.15.44.44,0,0,1-.21,0,.61.61,0,0,1-.25-.06.52.52,0,0,1-.16-.17.48.48,0,0,1,0-.5.43.43,0,0,1,.16-.19.61.61,0,0,1,.25-.06.44.44,0,0,1,.23.06.28.28,0,0,1,.15.13v-.19Zm-.5.87a.41.41,0,0,0,.19,0,.86.86,0,0,0,.13-.14.58.58,0,0,0,0-.19.65.65,0,0,0,0-.21.49.49,0,0,0-.13-.12.28.28,0,0,0-.19-.07.24.24,0,0,0-.18.07.3.3,0,0,0-.13.12.46.46,0,0,0,0,.21.41.41,0,0,0,0,.19.43.43,0,0,0,.13.14A.34.34,0,0,0,14,22.29Z"/><path class="cls-9" d="M15.74,21.42v1h-.13v-.19a.36.36,0,0,1-.15.15.4.4,0,0,1-.2,0,.45.45,0,0,1-.32-.11.4.4,0,0,1-.1-.31v-.56H15V22a.37.37,0,0,0,.06.23.28.28,0,0,0,.23.08.31.31,0,0,0,.23-.08.41.41,0,0,0,.1-.27v-.52Z"/><path class="cls-9" d="M17,22h-.84a.47.47,0,0,0,.13.25.4.4,0,0,0,.27.08.39.39,0,0,0,.15,0,.45.45,0,0,0,.14-.1l.09.08a.43.43,0,0,1-.17.13l-.21,0a.65.65,0,0,1-.29-.06.55.55,0,0,1-.17-.17.57.57,0,0,1-.06-.25.49.49,0,0,1,.06-.25.45.45,0,0,1,.17-.19.49.49,0,0,1,.25-.06.46.46,0,0,1,.23.06.5.5,0,0,1,.19.19.49.49,0,0,1,.06.25Zm-.48-.44a.34.34,0,0,0-.25.11.38.38,0,0,0-.11.23h.71a.31.31,0,0,0-.12-.23A.3.3,0,0,0,16.48,21.52Z"/><g class="cls-10"><path class="cls-11" d="M88.39,6.5a3.76,3.76,0,1,1,2.37,6.69A3.72,3.72,0,0,1,88,11.94a.36.36,0,0,0-.49,0,.35.35,0,0,0,0,.49A4.45,4.45,0,1,0,90.76,5,4.39,4.39,0,0,0,88,6a.34.34,0,0,0,.42.54Z"/></g><g class="cls-12"><path class="cls-11" d="M90.64,5.32V4.4a.34.34,0,0,0-.68,0v.92a.34.34,0,0,0,.68,0Z"/></g><g class="cls-13"><path class="cls-11" d="M91.56,5.32V4.4a.35.35,0,0,0-.35-.34.34.34,0,0,0-.34.34v.92a.34.34,0,0,0,.34.34A.35.35,0,0,0,91.56,5.32Z"/></g><g class="cls-14"><path class="cls-11" d="M93.73,6.47l.65-.65a.34.34,0,0,0,0-.48.36.36,0,0,0-.49,0L93.25,6a.34.34,0,0,0,0,.48A.33.33,0,0,0,93.73,6.47Z"/></g><g class="cls-15"><path class="cls-11" d="M94.87,5.76,94,4.84a.34.34,0,0,0-.48,0,.34.34,0,0,0,0,.49l.91.92a.34.34,0,0,0,.48,0A.36.36,0,0,0,94.87,5.76Z"/></g><g class="cls-16"><path class="cls-11" d="M89.85,4.75h1.82A.35.35,0,0,0,92,4.4a.34.34,0,0,0-.34-.34H89.85a.35.35,0,0,0-.35.34A.35.35,0,0,0,89.85,4.75Z"/></g><path class="cls-11" d="M90.41,6.92V9.2a.35.35,0,0,0,.1.24l1.37,1.37a.35.35,0,1,0,.49-.49L91.1,9.06V6.92a.35.35,0,0,0-.34-.35A.35.35,0,0,0,90.41,6.92Z"/><g class="cls-17"><path class="cls-11" d="M86.2,9.54h2.74a.34.34,0,0,0,0-.68H86.2a.34.34,0,1,0,0,.68Z"/></g><path class="cls-11" d="M87.57,7.94h1.37a.34.34,0,0,0,0-.68H87.57a.34.34,0,1,0,0,.68Z"/><path class="cls-11" d="M87.57,11.14h1.37a.34.34,0,0,0,.33-.34.34.34,0,0,0-.33-.35H87.57a.35.35,0,0,0-.34.35A.34.34,0,0,0,87.57,11.14Z"/><path class="cls-18" d="M84.49,16.76h3v2H79v-2h3V7.93L79.24,9.6V7.39l3.81-2.31h1.44Z"/><path class="cls-18" d="M89.78,16a.67.67,0,0,1,.52.21.74.74,0,0,1,.19.54v1h-.23v-1a.57.57,0,0,0-.15-.42.48.48,0,0,0-.37-.14.56.56,0,0,0-.46.19.57.57,0,0,0-.17.45v.92h-.23V15.33h.23v1a.72.72,0,0,1,.27-.25A1,1,0,0,1,89.78,16Z"/><path class="cls-18" d="M92.66,17H91.2a.61.61,0,0,0,.21.46.67.67,0,0,0,.47.16.73.73,0,0,0,.3-.06.79.79,0,0,0,.25-.17l.12.15a.8.8,0,0,1-.29.23,1.16,1.16,0,0,1-.38.06,1,1,0,0,1-.47-.1,1,1,0,0,1-.34-.34.87.87,0,0,1-.12-.45,1,1,0,0,1,.1-.46,1,1,0,0,1,.31-.32A.86.86,0,0,1,91.8,16a.81.81,0,0,1,.44.12.8.8,0,0,1,.31.32.92.92,0,0,1,.11.46Zm-.86-.75a.57.57,0,0,0-.42.16.59.59,0,0,0-.18.42h1.23a.64.64,0,0,0-.19-.42A.61.61,0,0,0,91.8,16.25Z"/><path class="cls-18" d="M94.73,16.06v1.75H94.5V17.5a1.07,1.07,0,0,1-.27.25.8.8,0,0,1-.36.08.78.78,0,0,1-.56-.19.76.76,0,0,1-.19-.56v-1h.23v1a.57.57,0,0,0,.15.42.51.51,0,0,0,.39.14.54.54,0,0,0,.42-.16.72.72,0,0,0,.17-.48v-.92Z"/><path class="cls-18" d="M95.61,16.39a.55.55,0,0,1,.25-.25.82.82,0,0,1,.4-.1v.23h-.05a.61.61,0,0,0-.45.17.68.68,0,0,0-.15.47v.9h-.23V16.06h.23Z"/><path class="cls-18" d="M98.24,17H96.78a.61.61,0,0,0,.21.46.68.68,0,0,0,.48.16.72.72,0,0,0,.29-.06.79.79,0,0,0,.25-.17l.12.15a.8.8,0,0,1-.29.23,1.1,1.1,0,0,1-.37.06,1,1,0,0,1-.48-.1,1.1,1.1,0,0,1-.34-.34.87.87,0,0,1-.12-.45,1,1,0,0,1,.1-.46,1.06,1.06,0,0,1,.31-.32.88.88,0,0,1,.44-.12.81.81,0,0,1,.44.12.8.8,0,0,1,.31.32.92.92,0,0,1,.11.46Zm-.86-.75a.54.54,0,0,0-.41.16.56.56,0,0,0-.19.42H98a.64.64,0,0,0-.19-.42A.61.61,0,0,0,97.38,16.25Z"/><path class="cls-18" d="M80.51,20H80v-.13h1.23V20h-.54v1.37h-.14Z"/><path class="cls-18" d="M81.56,20.42a.48.48,0,0,1,.41-.23v.17l0,0a.35.35,0,0,0-.29.13.42.42,0,0,0-.08.29v.58h-.17V20.22h.15Z"/><path class="cls-18" d="M82.67,20.19a.42.42,0,0,1,.33.13.37.37,0,0,1,.13.31v.71H83v-.17a.4.4,0,0,1-.14.15.69.69,0,0,1-.25,0,.45.45,0,0,1-.3-.08.33.33,0,0,1-.1-.25.28.28,0,0,1,.1-.23.46.46,0,0,1,.34-.11H83v-.06a.29.29,0,0,0-.08-.21.37.37,0,0,0-.25-.08.78.78,0,0,0-.21,0,.47.47,0,0,0-.17.09l-.06-.11a.61.61,0,0,1,.21-.12A.74.74,0,0,1,82.67,20.19Zm0,1a.31.31,0,0,0,.21-.07A.36.36,0,0,0,83,21v-.19h-.35c-.2,0-.29.07-.29.21a.18.18,0,0,0,.06.14A.32.32,0,0,0,82.63,21.24Z"/><path class="cls-18" d="M83.55,20.22h.16v1.12h-.16Zm.08-.25a.1.1,0,0,1-.11-.11.07.07,0,0,1,0-.06.09.09,0,0,1,.08,0,.18.18,0,0,1,.1.1.09.09,0,0,1,0,.08A.07.07,0,0,1,83.63,20Z"/><path class="cls-18" d="M84.73,21.28a.21.21,0,0,1-.1.06l-.15,0a.29.29,0,0,1-.33-.33v-.69H84v-.12h.19V20h.16v.25h.34v.12h-.34V21a.25.25,0,0,0,0,.16.21.21,0,0,0,.15,0h.08a.13.13,0,0,0,.09-.07Z"/><path class="cls-18" d="M86,20.82H85a.41.41,0,0,0,.13.29.45.45,0,0,0,.31.11.32.32,0,0,0,.19,0,.44.44,0,0,0,.16-.1l.09.1a.9.9,0,0,1-.19.15.66.66,0,0,1-.25,0,.53.53,0,0,1-.31-.08.6.6,0,0,1-.21-.21.73.73,0,0,1,0-.58.43.43,0,0,1,.21-.21.51.51,0,0,1,.27-.09.55.55,0,0,1,.29.09.39.39,0,0,1,.19.21.65.65,0,0,1,.06.29Zm-.54-.48a.37.37,0,0,0-.27.1.43.43,0,0,0-.13.28h.79a.38.38,0,0,0-.12-.28A.41.41,0,0,0,85.44,20.34Z"/><path class="cls-18" d="M87.72,20.19a.47.47,0,0,1,.33.13.52.52,0,0,1,.13.37v.65H88v-.65a.39.39,0,0,0-.08-.25.33.33,0,0,0-.23-.1.4.4,0,0,0-.29.1.51.51,0,0,0-.09.32v.58h-.16v-.65a.4.4,0,0,0-.09-.25.29.29,0,0,0-.23-.1.44.44,0,0,0-.29.1.51.51,0,0,0-.08.32v.58H86.3V20.22h.15v.2a.49.49,0,0,1,.16-.16.52.52,0,0,1,.25-.07.49.49,0,0,1,.25.07.34.34,0,0,1,.15.18.37.37,0,0,1,.19-.18A.6.6,0,0,1,87.72,20.19Z"/><path class="cls-18" d="M89.57,20.82h-.94a.45.45,0,0,0,.12.29.5.5,0,0,0,.32.11.29.29,0,0,0,.18,0,.4.4,0,0,0,.17-.1l.08.1a.84.84,0,0,1-.18.15.69.69,0,0,1-.25,0,.59.59,0,0,1-.32-.08.67.67,0,0,1-.2-.21.64.64,0,0,1,0-.58.45.45,0,0,1,.2-.21.58.58,0,0,1,.28-.09.62.62,0,0,1,.29.09.38.38,0,0,1,.18.21.54.54,0,0,1,.07.29ZM89,20.34a.41.41,0,0,0-.28.1.47.47,0,0,0-.12.28h.79a.38.38,0,0,0-.12-.28A.45.45,0,0,0,89,20.34Z"/><path class="cls-18" d="M90.47,20.19a.49.49,0,0,1,.34.13.51.51,0,0,1,.12.37v.65h-.14v-.65a.33.33,0,0,0-.11-.25.34.34,0,0,0-.25-.1.41.41,0,0,0-.27.1.46.46,0,0,0-.1.32v.58h-.17V20.22H90v.2a.49.49,0,0,1,.16-.16A.64.64,0,0,1,90.47,20.19Z"/><path class="cls-18" d="M92,21.28a.21.21,0,0,1-.1.06l-.15,0a.36.36,0,0,1-.25-.08.41.41,0,0,1-.08-.25v-.69h-.19v-.12h.19V20h.17v.25h.33v.12h-.33V21a.25.25,0,0,0,0,.16.19.19,0,0,0,.14,0h.09a.14.14,0,0,0,.08-.07Z"/><path class="cls-18" d="M85.37,24.2v.14H84.3v-1.5h1V23h-.87v.54h.79v.15h-.79v.54Z"/><path class="cls-18" d="M85.74,22.84h.61a.79.79,0,0,1,.42.11.78.78,0,0,1,.29.25.81.81,0,0,1,.1.39,1,1,0,0,1-.1.4.94.94,0,0,1-.29.27.9.9,0,0,1-.42.08h-.61Zm.61,1.36a.88.88,0,0,0,.33-.06.78.78,0,0,0,.23-.21.74.74,0,0,0,.08-.34.59.59,0,0,0-.08-.31.72.72,0,0,0-.23-.23.73.73,0,0,0-.33-.08h-.46V24.2Z"/><path class="cls-18" d="M87.52,22.84h.15v1.5h-.15Z"/></g></g></svg>