<svg xmlns="http://www.w3.org/2000/svg" viewBox="0 0 69.56 57"><defs><style>.cls-1{fill:#fff;}</style></defs><title>Fichier 2</title><g id="Calque_2" data-name="Calque 2"><g id="Calque_1-2" data-name="Calque 1"><g id="Global_Office"><path class="cls-1" d="M69.56,36.43V34.49H66V19.81H64.25l-4.74,1.93L60,23.87l3.67-1.45V34.49H59.61v1.94Z"/><path class="cls-1" d="M28.69,0a28.5,28.5,0,1,0,28.7,28.5A28.66,28.66,0,0,0,28.69,0Zm0,53.33A24.9,24.9,0,0,1,3.77,28.5,24.64,24.64,0,0,1,11.1,10.94,25,25,0,0,1,28.79,3.67v.1a24.81,24.81,0,0,0-.1,49.47Zm1.74-3.76a21.07,21.07,0,0,1,0-42.13l.1.1a21.06,21.06,0,0,0,0,41.93Zm1.74-3.67a17.39,17.39,0,0,1,0-34.78l.1.09a17.4,17.4,0,0,0,0,34.59ZM34,42.13a13.63,13.63,0,0,1,0-27.25V15A13.6,13.6,0,0,0,21.93,28.5,13.75,13.75,0,0,0,34,42Zm5.89-7.44a9,9,0,0,1-5.41,1.83c-4.35,0-7.34-3.28-7.34-8.21v-.19c0-4.73,3.19-8.21,7.44-8.21a7.56,7.56,0,0,1,4.92,1.64l-1.25,1.64a5.14,5.14,0,0,0-3.67-1.35c-3,0-5.13,2.7-5.13,6.28v.09c0,3.87,2,6.38,5.22,6.38a5.91,5.91,0,0,0,3.19-1l.1-.09V29.37H34.39V27.63H39.9Zm8.7,1.74A8.33,8.33,0,0,1,43,34.3l1.36-1.64A6.46,6.46,0,0,0,48.7,34.5c1.73,0,3-1.07,3-2.52s-.87-2-3.48-3c-3-1.16-4.64-2.22-4.64-4.83s2-4.35,5-4.35a7.26,7.26,0,0,1,4.83,1.74l-1.26,1.64a6.12,6.12,0,0,0-3.67-1.45c-1.64,0-2.8,1-2.8,2.32s.77,2,3.67,3.19c3.19,1.16,4.35,2.41,4.35,4.63C53.72,34.59,51.69,36.43,48.6,36.43Z"/></g></g></g></svg>