<svg xmlns="http://www.w3.org/2000/svg" viewBox="0 0 662 662"><defs><style>.cls-1{fill:#d5c2d6;isolation:isolate;}</style></defs><title>globe</title><g id="Calque_2" data-name="Calque 2"><g id="Calque_1-2" data-name="Calque 1"><path class="cls-1" d="M90.17,370.14a241.06,241.06,0,0,0,12.53,47.53,91.58,91.58,0,0,1-9.62-5.16h0C85.77,408,82,402.26,81.6,395.09,81.12,386.47,85.4,377.22,90.17,370.14Z"/><path class="cls-1" d="M147.41,172c-.22-11.37,2.61-26.17,17.22-32.95,4.51-2.11,11.38-2.85,20.28-1.94A245.4,245.4,0,0,0,147.41,172Z"/><path class="cls-1" d="M214.88,475.45c.37,21.89,2,40.89,3.68,57.12a231.52,231.52,0,0,1-90.08-91.94c16.08,3.36,34.58,5,55.7,5h.7A38.21,38.21,0,0,0,214.88,475.45Z"/><path class="cls-1" d="M221.91,462.15a23.91,23.91,0,0,1,.17-47.82c.8,0,1.6.06,2.37.13a23.91,23.91,0,0,1-2.54,47.69Z"/><path class="cls-1" d="M184.75,431.63c-25.52.09-46.8-2.35-64.25-7.34a228.49,228.49,0,0,1-19.24-91.74v-.37A229.87,229.87,0,0,1,203.9,140.78c16.67,4.6,37.28,13.24,60.66,26.92a37.91,37.91,0,0,0,5.21,48.3,645.21,645.21,0,0,0-23.5,62.24c-13.45,42-22.68,83-27.44,122.17A38,38,0,0,0,184.75,431.63Z"/><path class="cls-1" d="M238.52,557.84a241.53,241.53,0,0,0,48.62,14.28c-10.45,6.47-20.11,8.09-28.9,4.75C249.15,573.4,242.55,565.47,238.52,557.84Z"/><path class="cls-1" d="M296.12,212.63A23.91,23.91,0,1,1,320,188.74,23.9,23.9,0,0,1,296.12,212.63Z"/><path class="cls-1" d="M274.71,157.45c-19.3-11.55-38-20.42-55-26.31a228.41,228.41,0,0,1,111.47-28.88q4.57,0,9.11.17c-12.16,13-24.67,29.62-36.79,49.1A38.76,38.76,0,0,0,274.71,157.45Z"/><path class="cls-1" d="M424,106.56a241.3,241.3,0,0,0-50.36-14.63c8.92-6.05,16.49-8.76,22-8.38C412.39,84.6,420.28,96.71,424,106.56Z"/><path class="cls-1" d="M446.84,343.37a38,38,0,0,0-6.08,38.78h0a578.26,578.26,0,0,1-98.24,29.43C312,418,283.62,422.88,258.05,426.2a37.63,37.63,0,0,0-25.24-24.35c4.67-38.21,13.7-78.29,26.84-119.32A620.79,620.79,0,0,1,281.7,223.8a37.91,37.91,0,0,0,44.64-12.13,633.15,633.15,0,0,1,75.18,75.07C418.31,306.44,433.53,325.47,446.84,343.37Z"/><path class="cls-1" d="M495.4,353.92a24,24,0,0,1,4.41,13.85l0,0a23.8,23.8,0,0,1-13,21.22c-10.14,5.21-23.76,2-30.44-7.41a23.91,23.91,0,1,1,39-27.68Z"/><path class="cls-1" d="M331.18,562.1h0a228.6,228.6,0,0,1-97.71-21.81c-1.89-17.73-4.11-39.3-4.56-64.72a38,38,0,0,0,31-35.44c25.9-3.39,54.61-8.35,85.44-14.76a592.31,592.31,0,0,0,103.24-31.24A38,38,0,0,0,487,404q21.6,37.9,27.62,66.59A229.73,229.73,0,0,1,331.18,562.1Z"/><path class="cls-1" d="M516.91,490.17a66.71,66.71,0,0,1-1.16,13.6v0c-2.92,14.92-19.29,18.69-32.73,19.2A245.76,245.76,0,0,0,516.91,490.17Z"/><path class="cls-1" d="M316.73,156.87c14.81-23.47,29.26-40.95,42.08-52.95,106,12.74,190,97.87,201,204.35-11.69,12.15-28.65,26-51.37,40.07a37.94,37.94,0,0,0-50.79-13.9c-13.4-18-28.65-37.09-45.5-56.83-25.42-29.82-52.09-56.35-79.47-78.91a37.23,37.23,0,0,0,1.38-10A38.13,38.13,0,0,0,316.73,156.87Z"/><path class="cls-1" d="M561,326.79c.05,1.79.07,3.59.07,5.4a228.46,228.46,0,0,1-35.9,123.25h0q-7.73-26.16-25.74-57.92a38,38,0,0,0,13.91-35.72A308.72,308.72,0,0,0,561,326.79Z"/><path class="cls-1" d="M331,0C148.19,0,0,148.2,0,331S148.19,662,331,662,662,513.81,662,331,513.81,0,331,0ZM529.55,474.07q2.84,17.82,0,32.36c-5.1,26-31.77,30.61-50,30.61a113.15,113.15,0,0,1-14.6-.95,242.56,242.56,0,0,1-133.71,40q-12.41,0-24.49-1.21c-15.37,13.47-28.71,17.65-39.38,17.65a39.65,39.65,0,0,1-14-2.56c-18.61-7-29.82-26.89-32.71-40.43A245.44,245.44,0,0,1,110.34,435.79a115.74,115.74,0,0,1-24.62-11.37c-11.16-6.89-17.43-16.82-18.1-28.6-1-18.6,11.95-36.82,20.33-45q-.7-9.24-.7-18.64A242.68,242.68,0,0,1,135,187.32c-3.86-17.38-3.22-48.52,23.7-61,10-4.69,24.82-4.69,42.61-.53A242.5,242.5,0,0,1,331.18,88.23q11.49,0,22.69,1c15.55-13.49,30.22-20.53,42.63-19.73,29.63,1.84,41.29,28,44,44.57A245.61,245.61,0,0,1,550.67,225.7c10.09,3.54,41.26,16.68,43.7,46.95.87,11.26-6.4,25.49-20,40.69q.72,9.33.72,18.85A242.53,242.53,0,0,1,529.55,474.07Z"/><path class="cls-1" d="M572.07,293.65A240.86,240.86,0,0,0,559,244.88c9.55,5.54,20.23,14.82,21.37,28.88C580.71,278.23,578.06,285.14,572.07,293.65Z"/></g></g></svg>